<svg width="112" height="112" viewBox="0 0 112 112" fill="none" xmlns="http://www.w3.org/2000/svg">
<path d="M0 56C0 25.0721 25.0721 0 56 0V0C86.9279 0 112 25.0721 112 56V56C112 86.9279 86.9279 112 56 112V112C25.0721 112 0 86.9279 0 56V56Z" fill="#118DA8"/>
<path d="M93.0607 57.0607C93.6464 56.4749 93.6464 55.5251 93.0607 54.9393L83.5147 45.3934C82.9289 44.8076 81.9792 44.8076 81.3934 45.3934C80.8076 45.9792 80.8076 46.9289 81.3934 47.5147L89.8787 56L81.3934 64.4853C80.8076 65.0711 80.8076 66.0208 81.3934 66.6066C81.9792 67.1924 82.9289 67.1924 83.5147 66.6066L93.0607 57.0607ZM15 57.5H92V54.5H15V57.5Z" fill="white"/>
</svg>
